{
  "accessors": [
    {
      "bufferView": 0,
      "componentType": 5125,
      "count": 85428,
      "type": "SCALAR"
    },
    {
      "bufferView": 1,
      "componentType": 5126,
      "count": 14607,
      "max": [
        0.016740007219539055,
        0.0041279906322847434,
        0.016757474269415044
      ],
      "min": [
        -0.016764524270043546,
        -0.05576800397625647,
        -0.016757474269415044
      ],
      "type": "VEC3"
    },
    {
      "bufferView": 2,
      "componentType": 5126,
      "count": 14607,
      "max": [
        1.0,
        0.9999236800005457,
        0.999689182001131
      ],
      "min": [
        -1.0,
        -0.999978531382109,
        -0.9996891820011273
      ],
      "type": "VEC3"
    },
    {
      "bufferView": 3,
      "componentType": 5126,
      "count": 14607,
      "max": [
        0.7433399396699295,
        1.0
      ],
      "min": [
        0.0,
        0.0
      ],
      "type": "VEC2"
    },
    {
      "bufferView": 4,
      "componentType": 5125,
      "count": 109620,
      "type": "SCALAR"
    },
    {
      "bufferView": 5,
      "componentType": 5126,
      "count": 18671,
      "max": [
        0.03646285252725667,
        0.05576800397625647,
        0.03647418936181594
      ],
      "min": [
        -0.03646285252725662,
        -0.0012045595370238568,
        -0.03647418936181594
      ],
      "type": "VEC3"
    },
    {
      "bufferView": 6,
      "componentType": 5126,
      "count": 18671,
      "max": [
        1.0,
        0.9997172109835676,
        0.9996891820008127
      ],
      "min": [
        -1.0,
        -0.9999942051902846,
        -0.9996891820008302
      ],
      "type": "VEC3"
    },
    {
      "bufferView": 7,
      "componentType": 5126,
      "count": 18671,
      "max": [
        1.0,
        0.8525299983317854
      ],
      "min": [
        0.0,
        0.0
      ],
      "type": "VEC2"
    }
  ],
  "asset": {
    "generator": "Adobe Illustrator",
    "version": "2.0"
  },
  "bufferViews": [
    {
      "buffer": 0,
      "byteLength": 341712,
      "target": 34963
    },
    {
      "buffer": 0,
      "byteLength": 175284,
      "byteOffset": 341712,
      "target": 34962
    },
    {
      "buffer": 0,
      "byteLength": 175284,
      "byteOffset": 516996,
      "target": 34962
    },
    {
      "buffer": 0,
      "byteLength": 116856,
      "byteOffset": 692280,
      "target": 34962
    },
    {
      "buffer": 0,
      "byteLength": 438480,
      "byteOffset": 809136,
      "target": 34963
    },
    {
      "buffer": 0,
      "byteLength": 224052,
      "byteOffset": 1247616,
      "target": 34962
    },
    {
      "buffer": 0,
      "byteLength": 224052,
      "byteOffset": 1471668,
      "target": 34962
    },
    {
      "buffer": 0,
      "byteLength": 149368,
      "byteOffset": 1695720,
      "target": 34962
    }
  ],
  "buffers": [
    {
      "byteLength": 1845088,
      "uri": "data:application/octet-stream;base64,"
    }
  ],
  "materials": [
    {
      "doubleSided": true,
      "pbrMetallicRoughness": {
        "baseColorFactor": [
          0.79296875,
          0.73046875,
          0.625,
          1.0
        ],
        "metallicFactor": 0.0,
        "roughnessFactor": 0.4000000059604645
      }
    },
    {
      "doubleSided": true,
      "pbrMetallicRoughness": {
        "baseColorFactor": [
          0.88671875,
          0.0234375,
          0.0742187574505806,
          1.0
        ],
        "metallicFactor": 0.0,
        "roughnessFactor": 0.4000000059604645
      }
    }
  ],
  "meshes": [
    {
      "primitives": [
        {
          "attributes": {
            "NORMAL": 2,
            "POSITION": 1,
            "TEXCOORD_0": 3
          },
          "indices": 0,
          "material": 0,
          "mode": 4
        }
      ]
    },
    {
      "primitives": [
        {
          "attributes": {
            "NORMAL": 6,
            "POSITION": 5,
            "TEXCOORD_0": 7
          },
          "indices": 4,
          "material": 1,
          "mode": 4
        }
      ]
    }
  ],
  "nodes": [
    {
      "mesh": 0
    },
    {
      "mesh": 1
    }
  ],
  "scenes": [
    {
      "nodes": [
        0,
        1
      ]
    }
  ]
}
