{
  "accessors": [
    {
      "bufferView": 0,
      "componentType": 5125,
      "count": 11790,
      "type": "SCALAR"
    },
    {
      "bufferView": 1,
      "componentType": 5126,
      "count": 2295,
      "max": [
        -0.00421013156372102,
        0.011111120981837114,
        0.00517548954282967
      ],
      "min": [
        -0.037460314121117194,
        -0.05132273993599573,
        -0.005175489542829658
      ],
      "type": "VEC3"
    },
    {
      "bufferView": 2,
      "componentType": 5126,
      "count": 2295,
      "max": [
        0.9999998728882635,
        0.9697065824775293,
        1.0
      ],
      "min": [
        -0.9999996980244924,
        -0.9952285079881368,
        -1.0
      ],
      "type": "VEC3"
    },
    {
      "bufferView": 3,
      "componentType": 5126,
      "count": 2295,
      "max": [
        1.0,
        0.6021720491277539
      ],
      "min": [
        0.0,
        0.0
      ],
      "type": "VEC2"
    },
    {
      "bufferView": 4,
      "componentType": 5125,
      "count": 9696,
      "type": "SCALAR"
    },
    {
      "bufferView": 5,
      "componentType": 5126,
      "count": 1872,
      "max": [
        0.008107950911313222,
        0.00021163317272365756,
        0.004751675714753143
      ],
      "min": [
        -0.01651314661397378,
        -0.04939090300268659,
        -0.004751675714753116
      ],
      "type": "VEC3"
    },
    {
      "bufferView": 6,
      "componentType": 5126,
      "count": 1872,
      "max": [
        0.9999918141601134,
        0.8168480796348148,
        1.0
      ],
      "min": [
        -0.999998298824231,
        -1.0,
        -1.0
      ],
      "type": "VEC3"
    },
    {
      "bufferView": 7,
      "componentType": 5126,
      "count": 1872,
      "max": [
        1.0,
        0.6529388626822158
      ],
      "min": [
        0.0,
        0.0
      ],
      "type": "VEC2"
    },
    {
      "bufferView": 8,
      "componentType": 5125,
      "count": 8544,
      "type": "SCALAR"
    },
    {
      "bufferView": 9,
      "componentType": 5126,
      "count": 1662,
      "max": [
        0.032169323050235094,
        0.008994715544396736,
        0.004798854376188964
      ],
      "min": [
        0.007548226855076889,
        -0.04920633279690484,
        -0.0047988543761889385
      ],
      "type": "VEC3"
    },
    {
      "bufferView": 10,
      "componentType": 5126,
      "count": 1662,
      "max": [
        0.9999987643036521,
        0.7668803093318771,
        1.0
      ],
      "min": [
        -0.9999999977504112,
        -1.0,
        -1.0
      ],
      "type": "VEC3"
    },
    {
      "bufferView": 11,
      "componentType": 5126,
      "count": 1662,
      "max": [
        1.0,
        0.7523997833713865
      ],
      "min": [
        0.0,
        0.0
      ],
      "type": "VEC2"
    },
    {
      "bufferView": 12,
      "componentType": 5125,
      "count": 8796,
      "type": "SCALAR"
    },
    {
      "bufferView": 13,
      "componentType": 5126,
      "count": 1706,
      "max": [
        0.02687830827768775,
        0.02804232095651435,
        0.00407951701634091
      ],
      "min": [
        -0.012266611729247423,
        -0.04920633351632739,
        -0.004079517016340898
      ],
      "type": "VEC3"
    },
    {
      "bufferView": 14,
      "componentType": 5126,
      "count": 1706,
      "max": [
        0.9935969663927217,
        0.900608228633918,
        1.0
      ],
      "min": [
        -0.9990569114949038,
        -1.0,
        -1.0
      ],
      "type": "VEC3"
    },
    {
      "bufferView": 15,
      "componentType": 5126,
      "count": 1706,
      "max": [
        1.0,
        0.6198270084411005
      ],
      "min": [
        0.0,
        0.0
      ],
      "type": "VEC2"
    },
    {
      "bufferView": 16,
      "componentType": 5125,
      "count": 9624,
      "type": "SCALAR"
    },
    {
      "bufferView": 17,
      "componentType": 5126,
      "count": 1900,
      "max": [
        0.037460314121117194,
        0.05132273993599576,
        0.005998061562669208
      ],
      "min": [
        -0.01225370901258939,
        -0.050899472239814336,
        -0.005998061562669208
      ],
      "type": "VEC3"
    },
    {
      "bufferView": 18,
      "componentType": 5126,
      "count": 1900,
      "max": [
        0.9999996390734146,
        0.9791529963659241,
        1.0
      ],
      "min": [
        -0.9999946964602804,
        -1.0,
        -1.0
      ],
      "type": "VEC3"
    },
    {
      "bufferView": 19,
      "componentType": 5126,
      "count": 1900,
      "max": [
        1.0,
        0.6368217863240497
      ],
      "min": [
        0.0,
        0.0
      ],
      "type": "VEC2"
    }
  ],
  "asset": {
    "generator": "Adobe Illustrator",
    "version": "2.0"
  },
  "bufferViews": [
    {
      "buffer": 0,
      "byteLength": 47160,
      "target": 34963
    },
    {
      "buffer": 0,
      "byteLength": 27540,
      "byteOffset": 47160,
      "target": 34962
    },
    {
      "buffer": 0,
      "byteLength": 27540,
      "byteOffset": 74700,
      "target": 34962
    },
    {
      "buffer": 0,
      "byteLength": 18360,
      "byteOffset": 102240,
      "target": 34962
    },
    {
      "buffer": 0,
      "byteLength": 38784,
      "byteOffset": 120600,
      "target": 34963
    },
    {
      "buffer": 0,
      "byteLength": 22464,
      "byteOffset": 159384,
      "target": 34962
    },
    {
      "buffer": 0,
      "byteLength": 22464,
      "byteOffset": 181848,
      "target": 34962
    },
    {
      "buffer": 0,
      "byteLength": 14976,
      "byteOffset": 204312,
      "target": 34962
    },
    {
      "buffer": 0,
      "byteLength": 34176,
      "byteOffset": 219288,
      "target": 34963
    },
    {
      "buffer": 0,
      "byteLength": 19944,
      "byteOffset": 253464,
      "target": 34962
    },
    {
      "buffer": 0,
      "byteLength": 19944,
      "byteOffset": 273408,
      "target": 34962
    },
    {
      "buffer": 0,
      "byteLength": 13296,
      "byteOffset": 293352,
      "target": 34962
    },
    {
      "buffer": 0,
      "byteLength": 35184,
      "byteOffset": 306648,
      "target": 34963
    },
    {
      "buffer": 0,
      "byteLength": 20472,
      "byteOffset": 341832,
      "target": 34962
    },
    {
      "buffer": 0,
      "byteLength": 20472,
      "byteOffset": 362304,
      "target": 34962
    },
    {
      "buffer": 0,
      "byteLength": 13648,
      "byteOffset": 382776,
      "target": 34962
    },
    {
      "buffer": 0,
      "byteLength": 38496,
      "byteOffset": 396424,
      "target": 34963
    },
    {
      "buffer": 0,
      "byteLength": 22800,
      "byteOffset": 434920,
      "target": 34962
    },
    {
      "buffer": 0,
      "byteLength": 22800,
      "byteOffset": 457720,
      "target": 34962
    },
    {
      "buffer": 0,
      "byteLength": 15200,
      "byteOffset": 480520,
      "target": 34962
    }
  ],
  "buffers": [
    {
      "byteLength": 495720,
      "uri": "data:application/octet-stream;base64,"
    }
  ],
  "materials": [
    {
      "doubleSided": true,
      "pbrMetallicRoughness": {
        "baseColorFactor": [
          0.18359375,
          0.30859375,
          0.234375,
          1.0
        ],
        "metallicFactor": 0.0,
        "roughnessFactor": 0.4000000059604645
      }
    },
    {
      "doubleSided": true,
      "pbrMetallicRoughness": {
        "baseColorFactor": [
          0.18359375,
          0.30859375,
          0.234375,
          1.0
        ],
        "metallicFactor": 0.0,
        "roughnessFactor": 0.4000000059604645
      }
    },
    {
      "doubleSided": true,
      "pbrMetallicRoughness": {
        "baseColorFactor": [
          0.18359375,
          0.30859375,
          0.234375,
          1.0
        ],
        "metallicFactor": 0.0,
        "roughnessFactor": 0.4000000059604645
      }
    },
    {
      "doubleSided": true,
      "pbrMetallicRoughness": {
        "baseColorFactor": [
          0.18359375,
          0.30859375,
          0.234375,
          1.0
        ],
        "metallicFactor": 0.0,
        "roughnessFactor": 0.4000000059604645
      }
    },
    {
      "doubleSided": true,
      "pbrMetallicRoughness": {
        "baseColorFactor": [
          0.18359375,
          0.30859375,
          0.234375,
          1.0
        ],
        "metallicFactor": 0.0,
        "roughnessFactor": 0.4000000059604645
      }
    }
  ],
  "meshes": [
    {
      "primitives": [
        {
          "attributes": {
            "NORMAL": 2,
            "POSITION": 1,
            "TEXCOORD_0": 3
          },
          "indices": 0,
          "material": 0,
          "mode": 4
        }
      ]
    },
    {
      "primitives": [
        {
          "attributes": {
            "NORMAL": 6,
            "POSITION": 5,
            "TEXCOORD_0": 7
          },
          "indices": 4,
          "material": 1,
          "mode": 4
        }
      ]
    },
    {
      "primitives": [
        {
          "attributes": {
            "NORMAL": 10,
            "POSITION": 9,
            "TEXCOORD_0": 11
          },
          "indices": 8,
          "material": 2,
          "mode": 4
        }
      ]
    },
    {
      "primitives": [
        {
          "attributes": {
            "NORMAL": 14,
            "POSITION": 13,
            "TEXCOORD_0": 15
          },
          "indices": 12,
          "material": 3,
          "mode": 4
        }
      ]
    },
    {
      "primitives": [
        {
          "attributes": {
            "NORMAL": 18,
            "POSITION": 17,
            "TEXCOORD_0": 19
          },
          "indices": 16,
          "material": 4,
          "mode": 4
        }
      ]
    }
  ],
  "nodes": [
    {
      "mesh": 0
    },
    {
      "mesh": 1
    },
    {
      "mesh": 2
    },
    {
      "mesh": 3
    },
    {
      "mesh": 4
    }
  ],
  "scenes": [
    {
      "nodes": [
        0,
        1,
        2,
        3,
        4
      ]
    }
  ]
}
