{
  "accessors": [
    {
      "bufferView": 0,
      "componentType": 5125,
      "count": 86940,
      "type": "SCALAR"
    },
    {
      "bufferView": 1,
      "componentType": 5126,
      "count": 14861,
      "max": [
        0.016734920769302136,
        0.01132412082355011,
        0.016757255521247325
      ],
      "min": [
        -0.016769173359926642,
        -0.04526662484351193,
        -0.016757255521247325
      ],
      "type": "VEC3"
    },
    {
      "bufferView": 2,
      "componentType": 5126,
      "count": 14861,
      "max": [
        1.0,
        0.9999498423322285,
        0.9996891820008268
      ],
      "min": [
        -1.0,
        -0.999978522468842,
        -0.9996891820008086
      ],
      "type": "VEC3"
    },
    {
      "bufferView": 3,
      "componentType": 5126,
      "count": 14861,
      "max": [
        1.0,
        0.5098674007900235
      ],
      "min": [
        0.0,
        0.0
      ],
      "type": "VEC2"
    },
    {
      "bufferView": 4,
      "componentType": 5125,
      "count": 111132,
      "type": "SCALAR"
    },
    {
      "bufferView": 5,
      "componentType": 5126,
      "count": 18989,
      "max": [
        0.04428956263617112,
        0.04526662484351196,
        0.044303332909463165
      ],
      "min": [
        -0.044289562636171065,
        0.007824278315902128,
        -0.044303332909463165
      ],
      "type": "VEC3"
    },
    {
      "bufferView": 6,
      "componentType": 5126,
      "count": 18989,
      "max": [
        1.0,
        0.9999066289723101,
        0.9996891820008397
      ],
      "min": [
        -1.0,
        -0.9999999951051886,
        -0.9996891820008663
      ],
      "type": "VEC3"
    },
    {
      "bufferView": 7,
      "componentType": 5126,
      "count": 18989,
      "max": [
        0.8591859162115366,
        1.0
      ],
      "min": [
        0.0,
        0.0
      ],
      "type": "VEC2"
    }
  ],
  "asset": {
    "generator": "Adobe Illustrator",
    "version": "2.0"
  },
  "bufferViews": [
    {
      "buffer": 0,
      "byteLength": 347760,
      "target": 34963
    },
    {
      "buffer": 0,
      "byteLength": 178332,
      "byteOffset": 347760,
      "target": 34962
    },
    {
      "buffer": 0,
      "byteLength": 178332,
      "byteOffset": 526092,
      "target": 34962
    },
    {
      "buffer": 0,
      "byteLength": 118888,
      "byteOffset": 704424,
      "target": 34962
    },
    {
      "buffer": 0,
      "byteLength": 444528,
      "byteOffset": 823312,
      "target": 34963
    },
    {
      "buffer": 0,
      "byteLength": 227868,
      "byteOffset": 1267840,
      "target": 34962
    },
    {
      "buffer": 0,
      "byteLength": 227868,
      "byteOffset": 1495708,
      "target": 34962
    },
    {
      "buffer": 0,
      "byteLength": 151912,
      "byteOffset": 1723576,
      "target": 34962
    }
  ],
  "buffers": [
    {
      "byteLength": 1875488,
      "uri": "data:application/octet-stream;base64,"
    }
  ],
  "materials": [
    {
      "doubleSided": true,
      "pbrMetallicRoughness": {
        "baseColorFactor": [
          0.79296875,
          0.73046875,
          0.625,
          1.0
        ],
        "metallicFactor": 0.0,
        "roughnessFactor": 0.4000000059604645
      }
    },
    {
      "doubleSided": true,
      "pbrMetallicRoughness": {
        "baseColorFactor": [
          0.671875,
          0.2968750298023224,
          0.1484375,
          1.0
        ],
        "metallicFactor": 0.0,
        "roughnessFactor": 0.4000000059604645
      }
    }
  ],
  "meshes": [
    {
      "primitives": [
        {
          "attributes": {
            "NORMAL": 2,
            "POSITION": 1,
            "TEXCOORD_0": 3
          },
          "indices": 0,
          "material": 0,
          "mode": 4
        }
      ]
    },
    {
      "primitives": [
        {
          "attributes": {
            "NORMAL": 6,
            "POSITION": 5,
            "TEXCOORD_0": 7
          },
          "indices": 4,
          "material": 1,
          "mode": 4
        }
      ]
    }
  ],
  "nodes": [
    {
      "mesh": 0
    },
    {
      "mesh": 1
    }
  ],
  "scenes": [
    {
      "nodes": [
        0,
        1
      ]
    }
  ]
}
