{
  "accessors": [
    {
      "bufferView": 0,
      "componentType": 5125,
      "count": 6324,
      "type": "SCALAR"
    },
    {
      "bufferView": 1,
      "componentType": 5126,
      "count": 1766,
      "max": [
        0.08131541633539074,
        0.11290921139924356,
        0.01679999957559631
      ],
      "min": [
        -0.08131541633539076,
        -0.11290921139924359,
        -0.01679999957559631
      ],
      "type": "VEC3"
    },
    {
      "bufferView": 2,
      "componentType": 5126,
      "count": 1766,
      "max": [
        0.9999993014417319,
        0.9999945143534968,
        1.0
      ],
      "min": [
        -0.9999854492952368,
        -0.9999978591668366,
        -1.0
      ],
      "type": "VEC3"
    },
    {
      "bufferView": 3,
      "componentType": 5126,
      "count": 1766,
      "max": [
        1.0,
        0.9186854555241258
      ],
      "min": [
        0.0,
        0.0
      ],
      "type": "VEC2"
    }
  ],
  "asset": {
    "generator": "Adobe Illustrator",
    "version": "2.0"
  },
  "bufferViews": [
    {
      "buffer": 0,
      "byteLength": 25296,
      "target": 34963
    },
    {
      "buffer": 0,
      "byteLength": 21192,
      "byteOffset": 25296,
      "target": 34962
    },
    {
      "buffer": 0,
      "byteLength": 21192,
      "byteOffset": 46488,
      "target": 34962
    },
    {
      "buffer": 0,
      "byteLength": 14128,
      "byteOffset": 67680,
      "target": 34962
    }
  ],
  "buffers": [
    {
      "byteLength": 81808,
      "uri": "data:application/octet-stream;base64,"
    }
  ],
  "materials": [
    {
      "doubleSided": true,
      "pbrMetallicRoughness": {
        "baseColorFactor": [
          0.4117647058823529,
          0.6313725490196078,
          0.7176470588235294,
          1.0
        ],
        "metallicFactor": 0.0,
        "roughnessFactor": 0.4000000059604645
      }
    }
  ],
  "meshes": [
    {
      "primitives": [
        {
          "attributes": {
            "NORMAL": 2,
            "POSITION": 1,
            "TEXCOORD_0": 3
          },
          "indices": 0,
          "material": 0,
          "mode": 4
        }
      ]
    }
  ],
  "nodes": [
    {
      "mesh": 0
    }
  ],
  "scenes": [
    {
      "nodes": [
        0
      ]
    }
  ]
}
